<?xml version="1.0" encoding="UTF-8"?>
<svg id="Calque_1" data-name="Calque 1" xmlns="http://www.w3.org/2000/svg" version="1.1" viewBox="0 0 60 51">
  <defs>
    <style>
      .cls-1 {
        fill: #f5f5f5;
        stroke: #f5f5f5;
        stroke-miterlimit: 10;
      }
    </style>
  </defs>
  <path class="cls-1" d="M54.9,5c-2.9-2.9-6.9-4.5-11.1-4.5h0c-4.1,0-8.1,1.6-11,4.5l-2.8,2.8-2.7-2.8C24.4,2.1,20.4.4,16.3.5h0c-4.1,0-8.1,1.6-11,4.5-6.1,6.2-6.1,16.2,0,22.4l22,21.9h0c1.5,1.5,4,1.5,5.5,0,0,0,0,0,0,0,.8-.8,1.2-1.9,1.1-3,2.2.2,4-1.5,4.2-3.6,0-.2,0-.4,0-.6,2.2.1,4-1.5,4.2-3.6,0-.2,0-.3,0-.5,1.1,0,2.3-.3,3.1-1.1h0s9.5-9.4,9.5-9.4c6.1-6.2,6.1-16.2,0-22.4ZM41.3,35.4s0,0-.1,0l-8.4-8.4c-.4-.4-1-.4-1.4,0-.4.4-.4,1,0,1.4l8.5,8.5c.8.8.8,2,0,2.8s-2,.8-2.8,0h0s0,0,0,0l-8.5-8.5c-.4-.4-1-.4-1.4,0-.4.4-.4,1,0,1.4l8.4,8.4s0,0,0,0c.8.7.8,2,0,2.8s-2,.8-2.8,0c0,0,0,0,0,0,0,0,0,0,0,0l-8.5-8.5c-.4-.4-1-.4-1.4,0-.4.4-.4,1,0,1.4l8.5,8.5h0c.8.8.7,2,0,2.8-.8.7-2,.7-2.7,0L6.6,26C1.3,20.5,1.3,11.8,6.6,6.3c2.6-2.5,6-3.9,9.6-3.9h0c3.6,0,7.1,1.4,9.6,3.9l2.8,2.8-10.2,10c-1.6,1.6-1.6,4.1,0,5.7s4.1,1.6,5.7,0c0,0,0,0,0,0l6.2-6,13.7,13.7c.8.8.8,2,0,2.8-.8.8-2,.8-2.8,0ZM53.5,26l-7.1,7c-.2-.7-.5-1.3-1-1.8l-11.6-11.6c0,0,.2,0,.3,0,.7,0,1.4,0,2.1-.3h0c1.6-.4,3.1-1.2,4.3-2.4.4-.4.4-1,0-1.4-.4-.4-1-.4-1.4,0,0,0,0,0,0,0-.9.9-2.1,1.6-3.4,1.9h0c-1.6.4-3.4.2-4.8-.8h0c-.4-.3-.9-.2-1.2.1l-6.8,6.7c-.8.8-2.1.8-2.9,0-.8-.8-.8-2.1,0-2.9l10.9-10.7h0s3.5-3.5,3.5-3.5c2.6-2.5,6-3.9,9.6-3.9h0c3.6,0,7.1,1.4,9.7,3.9,5.3,5.5,5.3,14.2,0,19.7Z"/>
</svg>