<?xml version="1.0" encoding="UTF-8"?>
<svg id="Calque_1" data-name="Calque 1" xmlns="http://www.w3.org/2000/svg" version="1.1" viewBox="0 0 60 51">
  <defs>
    <style>
      .cls-1 {
        fill: #ffe96e;
        stroke: #ffe96e;
        stroke-miterlimit: 10;
      }
    </style>
  </defs>
  <path class="cls-1" d="M54.9,5c-2.9-2.9-6.9-4.5-11.1-4.5h0c-4.1,0-8.1,1.6-11,4.5l-2.8,2.8-2.7-2.8C24.4,2.1,20.4.4,16.3.5h0c-4.1,0-8.1,1.6-11,4.5C-.8,11.2-.8,21.2,5.3,27.4l22,21.9h0c1.5,1.5,4,1.5,5.5,0h0c.8-.8,1.2-1.9,1.1-3,2.2.2,4-1.5,4.2-3.6v-.6c2.2,0,4-1.5,4.2-3.6v-.5c1.1,0,2.3-.3,3.1-1.1h0l9.5-9.4c6.1-6.2,6.1-16.2,0-22.4h0ZM41.3,35.4h0l-8.4-8.4c-.4-.4-1-.4-1.4,0s-.4,1,0,1.4l8.5,8.5c.8.8.8,2,0,2.8s-2,.8-2.8,0h0l-8.5-8.5c-.4-.4-1-.4-1.4,0s-.4,1,0,1.4l8.4,8.4h0c.8.7.8,2,0,2.8s-2,.8-2.8,0h0l-8.5-8.5c-.4-.4-1-.4-1.4,0s-.4,1,0,1.4l8.5,8.5h0c.8.8.7,2,0,2.8-.8.7-2,.7-2.7,0L6.6,26C1.3,20.5,1.3,11.8,6.6,6.3c2.6-2.5,6-3.9,9.6-3.9h0c3.6,0,7.1,1.4,9.6,3.9l2.8,2.8-10.2,10c-1.6,1.6-1.6,4.1,0,5.7s4.1,1.6,5.7,0h0l6.2-6,13.7,13.7c.8.8.8,2,0,2.8s-2,.8-2.8,0h0Z"/>
</svg>