<svg xmlns="http://www.w3.org/2000/svg" xmlns:xlink="http://www.w3.org/1999/xlink" viewBox="0,0,256,256" width="32px" height="32px"><g fill="#ffffff" fill-rule="nonzero" stroke="none" stroke-width="1" stroke-linecap="butt" stroke-linejoin="miter" stroke-miterlimit="10" stroke-dasharray="" stroke-dashoffset="0" font-family="none" font-weight="none" font-size="none" text-anchor="none" style="mix-blend-mode: normal"><g transform="scale(16,16)"><path d="M10.5,1c-2.48047,0 -4.5,2.01953 -4.5,4.5c0,1.05859 0.38281,2.02344 1,2.79297l-4.97656,4.97656l0.70313,0.71094l4.98047,-4.98047c0.76953,0.61719 1.73438,1 2.79297,1c2.48047,0 4.5,-2.01953 4.5,-4.5c0,-2.48047 -2.01953,-4.5 -4.5,-4.5zM10.5,2c1.9375,0 3.5,1.5625 3.5,3.5c0,1.9375 -1.5625,3.5 -3.5,3.5c-1.9375,0 -3.5,-1.5625 -3.5,-3.5c0,-1.9375 1.5625,-3.5 3.5,-3.5z"></path></g></g></svg>