<?xml version="1.0" encoding="UTF-8"?>
<svg id="Calque_1" data-name="Calque 1" xmlns="http://www.w3.org/2000/svg" version="1.1" viewBox="0 0 90 32">
  <defs>
    <style>
      .cls-1 {
        fill: #ffe96e;
        stroke-width: 0px;
      }
    </style>
  </defs>
  <path class="cls-1" d="M4,3.9h5.6c1.9,0,3.3.5,4.3,1.5.9,1,1.4,2.5,1.4,4.5v2.4c0,2-.5,3.5-1.4,4.5-.9,1-2.4,1.5-4.3,1.5h-1.8v9.9h-3.8V3.9ZM9.6,14.8c.6,0,1.1-.2,1.4-.5s.5-.9.5-1.8v-2.9c0-.8-.2-1.4-.5-1.8s-.8-.5-1.4-.5h-1.8v7.5h1.8Z"/>
  <path class="cls-1" d="M17.4,3.9h5.7c2,0,3.4.5,4.3,1.4.9.9,1.4,2.3,1.4,4.2v1.5c0,2.5-.8,4.1-2.5,4.8h0c.9.3,1.6.9,2,1.8.4.9.6,2,.6,3.4v4.3c0,.7,0,1.3,0,1.7s.2.8.3,1.3h-3.9c-.1-.4-.2-.8-.3-1.1,0-.3,0-1,0-1.9v-4.4c0-1.1-.2-1.9-.5-2.3-.4-.4-1-.7-1.9-.7h-1.3v10.4h-3.8V3.9ZM22.6,14.3c.8,0,1.3-.2,1.7-.6s.6-1.1.6-2v-1.9c0-.9-.2-1.5-.5-1.9-.3-.4-.8-.6-1.5-.6h-1.7v6.9h1.4Z"/>
  <path class="cls-1" d="M31.3,3.9h10.4v3.5h-6.6v6.4h5.2v3.5h-5.2v7.5h6.6v3.5h-10.4V3.9Z"/>
  <path class="cls-1" d="M43.9,3.9h10.1v3.5h-6.3v6.8h4.9v3.5h-4.9v10.6h-3.8V3.9Z"/>
  <path class="cls-1" d="M55.9,3.9h3.8v20.8h6.3v3.5h-10.1V3.9Z"/>
  <path class="cls-1" d="M67.8,3.9h3.8v24.3h-3.8V3.9Z"/>
  <path class="cls-1" d="M77.8,15.7l-4.2-11.9h4l2.6,7.8h0l2.6-7.8h3.6l-4.2,11.9,4.4,12.4h-4l-2.8-8.5h0l-2.8,8.5h-3.6l4.4-12.4Z"/>
</svg>