<?xml version="1.0" encoding="UTF-8"?>
<svg id="Calque_1" data-name="Calque 1" xmlns="http://www.w3.org/2000/svg" version="1.1" viewBox="0 0 32 32">
  <defs>
    <style>
      .cls-1 {
        fill: #ffe96e;
        stroke-width: 0px;
      }
    </style>
  </defs>
  <path class="cls-1" d="M1.7,6.8h4.4c1.5,0,2.6.4,3.3,1.2.7.8,1.1,2,1.1,3.5v1.9c0,1.5-.4,2.7-1.1,3.5-.7.8-1.8,1.2-3.3,1.2h-1.4v7.7H1.7V6.8ZM6.1,15.3c.5,0,.9-.1,1.1-.4.2-.3.4-.7.4-1.4v-2.2c0-.6-.1-1.1-.4-1.4s-.6-.4-1.1-.4h-1.4v5.8h1.4Z"/>
  <path class="cls-1" d="M12.2,6.8h7.9v2.7h-4.9v5.3h3.8v2.7h-3.8v8.2h-3V6.8Z"/>
  <path class="cls-1" d="M24.1,16.1l-3.3-9.2h3.1l2,6.1h0l2.1-6.1h2.8l-3.3,9.2,3.4,9.7h-3.1l-2.2-6.6h0l-2.2,6.6h-2.8l3.4-9.7Z"/>
</svg>